<svg width="41" height="44" viewBox="0 0 41 44" fill="none" xmlns="http://www.w3.org/2000/svg">
<g id="logo pw">
<g id="Group 10703">
<path id="Subtraction 3" d="M20.8672 43.3282C15.0613 43.3583 9.47389 41.1162 5.29919 37.0812C3.46739 35.3164 1.96637 33.238 0.867188 30.9442H2.40519C3.40657 32.8632 4.71252 34.6072 6.27219 36.1082C10.1894 39.8843 15.4264 41.9812 20.8672 41.9522C26.308 41.9812 31.545 39.8843 35.4622 36.1082C37.0219 34.6072 38.3279 32.8633 39.3292 30.9442H40.8672C39.7681 33.2383 38.2671 35.3171 36.4352 37.0822C32.2603 41.1168 26.673 43.3585 20.8672 43.3282V43.3282ZM2.40519 13.0572H0.867188C1.96625 10.763 3.46727 8.68419 5.29919 6.91917C9.47389 2.88415 15.0613 0.64209 20.8672 0.672174C26.6731 0.64209 32.2605 2.88415 36.4352 6.91917C38.2668 8.68333 39.7678 10.7611 40.8672 13.0542H39.3302C38.3284 11.1357 37.0221 9.39242 35.4622 7.89217C31.545 4.11608 26.308 2.01912 20.8672 2.04817C15.4264 2.01912 10.1894 4.11608 6.27219 7.89217C4.71255 9.39318 3.4066 11.1371 2.40519 13.0562V13.0572Z" fill="#1B2124"/>
<path id="Subtraction 1" d="M20.8669 40.5747C18.2957 40.5807 15.7481 40.0848 13.3669 39.1147C11.0907 38.1905 9.01227 36.8392 7.24393 35.1337C5.49462 33.4566 4.09203 31.4519 3.11593 29.2337C1.97942 26.639 1.47044 23.813 1.63028 20.9848C1.79013 18.1566 2.61429 15.4059 4.03593 12.9557C5.60614 10.2615 7.81505 7.99488 10.4679 6.35574V6.53174C10.8769 6.59174 11.2679 6.66474 11.6169 6.74774C11.9514 6.81965 12.2566 6.99035 12.4929 7.23774C12.6027 7.36434 12.6775 7.51738 12.7099 7.68174C12.766 7.90597 12.8038 8.13439 12.8229 8.36474C12.8449 8.61374 12.8609 8.88174 12.8689 9.16474C12.8769 9.44774 12.8799 9.72374 12.8799 9.99574V15.7527C12.8799 16.2057 12.8799 16.6527 12.8689 17.0847V17.2847C12.8619 17.6437 12.8559 17.9757 12.8489 18.2847C12.8419 18.6467 12.8379 18.9377 12.8379 19.1497C12.8379 19.3867 12.8299 19.6387 12.8149 19.9007C12.7999 20.1627 12.7819 20.4007 12.7579 20.6297C12.7397 20.8366 12.7063 21.0418 12.6579 21.2437C12.6278 21.392 12.5657 21.5319 12.4759 21.6537C12.2593 21.9087 11.9756 22.0978 11.6569 22.1997C11.3013 22.3227 10.9356 22.4141 10.5639 22.4727V22.7007H15.4839C15.587 22.724 15.6875 22.7575 15.7839 22.8007C15.9713 22.8858 16.1465 22.9954 16.3049 23.1267C16.4365 23.2353 16.5502 23.3639 16.6419 23.5077C16.7279 23.6497 16.7869 23.7527 16.8269 23.8337C16.9209 24.0227 16.9989 24.1857 17.0659 24.3337C17.1329 24.4817 17.2039 24.6507 17.2729 24.8337C17.3419 25.0167 17.4169 25.2137 17.4899 25.3987C17.5629 25.5837 17.6459 25.7987 17.7619 26.1157C18.1093 27.0284 18.4569 27.9447 18.8049 28.8647L18.8949 29.1027C19.2143 29.9481 19.5429 30.8174 19.8809 31.7107L20.6749 33.8107L21.0319 34.7587C21.4729 35.9277 21.8879 37.0217 22.3029 38.1037H22.5639L23.5199 35.9747C23.7439 35.3547 23.9859 34.6817 24.2809 33.8557C24.5189 33.1897 24.7749 32.4607 25.0629 31.6287C25.3109 30.9117 25.5749 30.1627 25.8449 29.4007C26.1239 28.6187 26.3659 27.9327 26.5839 27.3007C26.8959 28.1327 27.1949 28.9627 27.4749 29.7657C27.7549 30.5687 28.0469 31.4037 28.3749 32.3407C28.6839 33.2187 29.0129 34.1477 29.3519 35.0997C29.6829 36.0307 30.0519 37.0397 30.4519 38.0997H30.4769C27.5354 39.7266 24.2284 40.5783 20.8669 40.5747V40.5747ZM30.7289 37.9587L31.5769 36.0207C31.8539 35.1917 32.1529 34.3107 32.4679 33.4027C32.7829 32.4947 33.1029 31.5637 33.4129 30.6537C33.7129 29.7637 34.0269 28.8687 34.3359 27.9927C34.6449 27.1167 34.9129 26.3297 35.1359 25.6357C35.2799 25.2187 35.4189 24.8637 35.5489 24.5817C35.6566 24.3405 35.7802 24.1066 35.9189 23.8817C36.0093 23.7341 36.1095 23.5928 36.2189 23.4587C36.3189 23.3457 36.3749 23.2807 36.4189 23.2407C36.5529 23.1137 36.7024 23.0042 36.8639 22.9147C37.1456 22.7476 37.4608 22.6451 37.7869 22.6147V22.3977H33.0129V22.6147C33.2105 22.6336 33.4063 22.667 33.5989 22.7147C33.8094 22.7631 34.0134 22.8359 34.2069 22.9317C34.3853 23.0186 34.5471 23.1361 34.6849 23.2787C34.8194 23.423 34.8913 23.6146 34.8849 23.8117C34.8849 23.9587 34.8699 24.1847 34.8409 24.4847C34.7686 24.9794 34.6525 25.4666 34.4939 25.9407C34.3339 26.4647 34.1549 27.0307 33.9619 27.6247L33.7259 28.3507L33.3709 29.4227C33.1899 29.9787 32.9979 30.5587 32.7839 31.1937C32.5839 31.7937 32.4049 32.3057 32.2409 32.7687C32.0769 33.2317 31.9409 33.6337 31.8279 33.9687C31.7149 34.3037 31.6429 34.5087 31.5999 34.6097C31.5059 34.3564 31.3603 33.9591 31.1629 33.4177L31.1099 33.2727C30.8699 32.6137 30.6179 31.9117 30.3599 31.1877C30.0899 30.4257 29.7979 29.6107 29.4919 28.7647C29.1859 27.9187 28.9119 27.1437 28.6669 26.4287C28.4219 25.7137 28.2209 25.1127 28.0589 24.6037C27.9539 24.3179 27.874 24.0234 27.8199 23.7237C27.8195 23.6182 27.8438 23.5141 27.8911 23.4198C27.9383 23.3254 28.0072 23.2435 28.0919 23.1807C28.2741 23.0349 28.4797 22.921 28.6999 22.8437C28.9178 22.7654 29.1434 22.7108 29.3729 22.6807C29.6149 22.6487 29.7599 22.6287 29.8399 22.6147V22.3977H23.0399V22.6367C23.3419 22.6441 23.6415 22.6915 23.9309 22.7777C24.1519 22.8442 24.3609 22.9455 24.5499 23.0777C24.6991 23.1839 24.831 23.3124 24.9409 23.4587C25.0271 23.5753 25.1037 23.6987 25.1699 23.8277C25.3699 24.2417 25.5589 24.6757 25.7349 25.1197C25.9109 25.5637 26.0969 26.0537 26.3209 26.6517C26.0039 27.6457 25.6829 28.6147 25.3649 29.5307C25.0469 30.4467 24.7589 31.2697 24.4959 32.0077C24.2329 32.7457 24.0179 33.3477 23.8439 33.8327C23.6859 34.2747 23.5669 34.6037 23.5179 34.7327C23.3589 34.2987 23.1539 33.7557 22.8879 33.0707C22.6139 32.3627 22.3129 31.5777 22.0519 30.8977C21.7519 30.1267 21.4519 29.3337 21.1609 28.5407C20.8269 27.6407 20.5679 26.9407 20.3459 26.3347C20.1039 25.6737 19.9029 25.0967 19.7459 24.6187C19.6358 24.3284 19.5589 24.0264 19.5169 23.7187C19.5059 23.5037 19.5803 23.2931 19.7239 23.1327C19.8605 22.9887 20.0276 22.877 20.2129 22.8057C20.3885 22.7375 20.5704 22.6866 20.7559 22.6537C20.8781 22.6307 21.0017 22.6163 21.1259 22.6107V22.3937H17.1869C16.9072 22.3489 16.6369 22.258 16.3869 22.1247C16.1072 21.9873 15.865 21.7842 15.6809 21.5327C15.5199 21.2728 15.4334 20.9735 15.4309 20.6677C15.4159 20.3187 15.3999 19.8977 15.3849 19.4157C15.3849 19.1587 15.3849 18.9157 15.3739 18.6997C15.3629 18.4837 15.3619 18.2507 15.3619 17.9827V15.8447H16.5909C17.0629 15.8447 17.5489 15.8257 18.0359 15.7867C18.5229 15.7477 19.0199 15.6917 19.5039 15.6167C19.9686 15.5455 20.4256 15.431 20.8689 15.2747C21.2912 15.1176 21.6957 14.9165 22.0759 14.6747C22.4646 14.429 22.8136 14.1255 23.1109 13.7747C23.4136 13.4142 23.6557 13.0069 23.8279 12.5687C24.016 12.0819 24.1093 11.5636 24.1029 11.0417C24.1225 10.2047 23.8928 9.38085 23.4429 8.67474C23.0256 8.0277 22.4542 7.49442 21.7799 7.12274C21.104 6.74672 20.3623 6.50368 19.5949 6.40674C18.7113 6.3015 17.8218 6.25174 16.9319 6.25774H15.9029C15.5429 6.25774 15.1299 6.25774 14.6389 6.26974C14.2099 6.27774 13.7549 6.28174 13.2849 6.28174C12.8319 6.28174 12.4059 6.28174 12.0209 6.29274C11.6359 6.30374 11.3089 6.30474 11.0079 6.30474H10.5519C13.2055 4.69746 16.1976 3.73194 19.2901 3.48507C22.3826 3.2382 25.49 3.71679 28.3649 4.88274C30.6412 5.80697 32.7196 7.15827 34.4879 8.86374C36.2372 10.5409 37.6398 12.5456 38.6159 14.7637C39.7728 17.4055 40.2788 20.2863 40.0916 23.1642C39.9044 26.0421 39.0293 28.8331 37.5399 31.3027C35.8697 34.0606 33.5265 36.3491 30.7299 37.9537L30.7289 37.9587ZM15.3619 15.5227V12.6117C15.3619 11.8597 15.3619 11.1117 15.3739 10.3817C15.3859 9.65174 15.3929 8.99074 15.4079 8.44674C15.4219 8.10574 15.4369 7.83374 15.4529 7.63974C15.4689 7.44574 15.4839 7.30074 15.4989 7.19474C15.5104 7.10626 15.5295 7.01894 15.5559 6.93374C15.5808 6.85559 15.5999 6.7757 15.6129 6.69474C15.7189 6.6794 15.8593 6.6604 16.0339 6.63774C16.2796 6.61099 16.5268 6.59964 16.7739 6.60374C17.2002 6.6031 17.626 6.63351 18.0479 6.69474C18.6435 6.77803 19.2137 6.99019 19.7189 7.31643C20.2241 7.64268 20.652 8.07516 20.9729 8.58374C21.4236 9.28182 21.6572 10.0979 21.6439 10.9287C21.6535 11.8483 21.3836 12.749 20.8699 13.5117C20.3307 14.2945 19.546 14.8754 18.6399 15.1627C18.1475 15.3335 17.6341 15.4368 17.1139 15.4697C16.5739 15.5067 15.9849 15.5227 15.3619 15.5227Z" fill="#1B2124"/>
</g>
</g>
</svg>
